<?xml version="1.0" encoding="UTF-8" standalone="no"?>
<!DOCTYPE svg PUBLIC "-//W3C//DTD SVG 1.1//EN"
 "http://www.w3.org/Graphics/SVG/1.1/DTD/svg11.dtd">
<!-- Generated by graphviz version 2.40.1 (20161225.0304)
 -->
<!-- Title: state transitions Pages: 1 -->
<svg width="526pt" height="774pt"
 viewBox="0.00 0.00 526.00 774.00" xmlns="http://www.w3.org/2000/svg" xmlns:xlink="http://www.w3.org/1999/xlink">
<g id="graph0" class="graph" transform="scale(1 1) rotate(0) translate(4 770)">
<title>state transitions</title>
<polygon fill="#ffffff" stroke="transparent" points="-4,4 -4,-770 522,-770 522,4 -4,4"/>
<g id="clust1" class="cluster state regular">
<title>cluster_state</title>
<path fill="none" stroke="#000000" stroke-width="2" d="M20,-8C20,-8 498,-8 498,-8 504,-8 510,-14 510,-20 510,-20 510,-746 510,-746 510,-752 504,-758 498,-758 498,-758 20,-758 20,-758 14,-758 8,-752 8,-746 8,-746 8,-20 8,-20 8,-14 14,-8 20,-8"/>
<text text-anchor="start" x="245.9944" y="-739.2" font-family="Helvetica,sans-Serif" font-size="12.00" fill="#000000">state</text>
</g>
<!-- state -->
<!-- IDLE -->
<g id="node2" class="node state regular">
<title>IDLE</title>
<polygon fill="#ffffff" fill-opacity="0.003922" stroke="transparent" stroke-width="2" points="213,-298 157,-298 157,-262 213,-262 213,-298"/>
<text text-anchor="start" x="171.6644" y="-276.2" font-family="Helvetica,sans-Serif" font-size="12.00" fill="#000000">IDLE</text>
<path fill="none" stroke="#000000" stroke-width="2" d="M169.3333,-263C169.3333,-263 200.6667,-263 200.6667,-263 206.3333,-263 212,-268.6667 212,-274.3333 212,-274.3333 212,-285.6667 212,-285.6667 212,-291.3333 206.3333,-297 200.6667,-297 200.6667,-297 169.3333,-297 169.3333,-297 163.6667,-297 158,-291.3333 158,-285.6667 158,-285.6667 158,-274.3333 158,-274.3333 158,-268.6667 163.6667,-263 169.3333,-263"/>
</g>
<!-- IDLE&#45;&gt;IDLE -->
<g id="edge2" class="edge transition">
<title>IDLE&#45;&gt;IDLE</title>
<path fill="none" stroke="#000000" d="M213.0183,-284.8247C224.888,-285.1883 235,-283.5801 235,-280 235,-277.5387 230.2205,-276.0094 223.3762,-275.4121"/>
<polygon fill="#000000" stroke="#000000" points="223.0957,-271.9049 213.0183,-275.1753 222.9356,-278.903 223.0957,-271.9049"/>
<text text-anchor="start" x="235" y="-277" font-family="Helvetica,sans-Serif" font-size="10.00" fill="#000000">not (!i2c_busy) &#160;&#160;</text>
</g>
<!-- HOLD -->
<g id="node3" class="node state regular">
<title>HOLD</title>
<polygon fill="#ffffff" fill-opacity="0.003922" stroke="transparent" stroke-width="2" points="318,-216 262,-216 262,-180 318,-180 318,-216"/>
<text text-anchor="start" x="273.3344" y="-194.2" font-family="Helvetica,sans-Serif" font-size="12.00" fill="#000000">HOLD</text>
<path fill="none" stroke="#000000" stroke-width="2" d="M274.3333,-181C274.3333,-181 305.6667,-181 305.6667,-181 311.3333,-181 317,-186.6667 317,-192.3333 317,-192.3333 317,-203.6667 317,-203.6667 317,-209.3333 311.3333,-215 305.6667,-215 305.6667,-215 274.3333,-215 274.3333,-215 268.6667,-215 263,-209.3333 263,-203.6667 263,-203.6667 263,-192.3333 263,-192.3333 263,-186.6667 268.6667,-181 274.3333,-181"/>
</g>
<!-- IDLE&#45;&gt;HOLD -->
<g id="edge1" class="edge transition">
<title>IDLE&#45;&gt;HOLD</title>
<path fill="none" stroke="#000000" d="M208.3029,-261.8015C223.1203,-250.2298 242.4875,-235.105 258.646,-222.486"/>
<polygon fill="#000000" stroke="#000000" points="261.0351,-225.0611 266.7622,-216.1476 256.7266,-219.5441 261.0351,-225.0611"/>
<text text-anchor="start" x="244" y="-236" font-family="Helvetica,sans-Serif" font-size="10.00" fill="#000000">!i2c_busy &#160;&#160;</text>
</g>
<!-- HOLD&#45;&gt;HOLD -->
<g id="edge4" class="edge transition">
<title>HOLD&#45;&gt;HOLD</title>
<path fill="none" stroke="#000000" d="M318.0183,-202.8247C329.888,-203.1883 340,-201.5801 340,-198 340,-195.5387 335.2205,-194.0094 328.3762,-193.4121"/>
<polygon fill="#000000" stroke="#000000" points="328.0957,-189.9049 318.0183,-193.1753 327.9356,-196.903 328.0957,-189.9049"/>
<text text-anchor="start" x="340" y="-195" font-family="Helvetica,sans-Serif" font-size="10.00" fill="#000000">not (!f_empty) &#160;&#160;</text>
</g>
<!-- FIFO_WAIT -->
<g id="node4" class="node state regular">
<title>FIFO_WAIT</title>
<polygon fill="#ffffff" fill-opacity="0.003922" stroke="transparent" stroke-width="2" points="332.5,-134 247.5,-134 247.5,-98 332.5,-98 332.5,-134"/>
<text text-anchor="start" x="258.5014" y="-112.2" font-family="Helvetica,sans-Serif" font-size="12.00" fill="#000000">FIFO_WAIT</text>
<path fill="none" stroke="#000000" stroke-width="2" d="M259.8333,-99C259.8333,-99 320.1667,-99 320.1667,-99 325.8333,-99 331.5,-104.6667 331.5,-110.3333 331.5,-110.3333 331.5,-121.6667 331.5,-121.6667 331.5,-127.3333 325.8333,-133 320.1667,-133 320.1667,-133 259.8333,-133 259.8333,-133 254.1667,-133 248.5,-127.3333 248.5,-121.6667 248.5,-121.6667 248.5,-110.3333 248.5,-110.3333 248.5,-104.6667 254.1667,-99 259.8333,-99"/>
</g>
<!-- HOLD&#45;&gt;FIFO_WAIT -->
<g id="edge3" class="edge transition">
<title>HOLD&#45;&gt;FIFO_WAIT</title>
<path fill="none" stroke="#000000" d="M290,-179.8015C290,-169.3976 290,-156.1215 290,-144.3768"/>
<polygon fill="#000000" stroke="#000000" points="293.5001,-144.1476 290,-134.1476 286.5001,-144.1476 293.5001,-144.1476"/>
<text text-anchor="start" x="290" y="-154" font-family="Helvetica,sans-Serif" font-size="10.00" fill="#000000">!f_empty &#160;&#160;</text>
</g>
<!-- post_wait_state -->
<g id="node14" class="node state regular">
<title>post_wait_state</title>
<polygon fill="#ffffff" fill-opacity="0.003922" stroke="transparent" stroke-width="2" points="342.5,-52 237.5,-52 237.5,-16 342.5,-16 342.5,-52"/>
<text text-anchor="start" x="248.8198" y="-30.2" font-family="Helvetica,sans-Serif" font-size="12.00" fill="#000000">post_wait_state</text>
<path fill="none" stroke="#ff0000" stroke-width="2" d="M249.8333,-17C249.8333,-17 330.1667,-17 330.1667,-17 335.8333,-17 341.5,-22.6667 341.5,-28.3333 341.5,-28.3333 341.5,-39.6667 341.5,-39.6667 341.5,-45.3333 335.8333,-51 330.1667,-51 330.1667,-51 249.8333,-51 249.8333,-51 244.1667,-51 238.5,-45.3333 238.5,-39.6667 238.5,-39.6667 238.5,-28.3333 238.5,-28.3333 238.5,-22.6667 244.1667,-17 249.8333,-17"/>
</g>
<!-- FIFO_WAIT&#45;&gt;post_wait_state -->
<g id="edge5" class="edge transition">
<title>FIFO_WAIT&#45;&gt;post_wait_state</title>
<path fill="none" stroke="#ff0000" d="M290,-97.8015C290,-87.3976 290,-74.1215 290,-62.3768"/>
<polygon fill="#ff0000" stroke="#ff0000" points="293.5001,-62.1476 290,-52.1476 286.5001,-62.1476 293.5001,-62.1476"/>
<text text-anchor="middle" x="291.3895" y="-72" font-family="Helvetica,sans-Serif" font-size="10.00" fill="#ff0000"> </text>
</g>
<!-- FIFO_READ_SLVADDR -->
<g id="node5" class="node state regular">
<title>FIFO_READ_SLVADDR</title>
<polygon fill="#ffffff" fill-opacity="0.003922" stroke="transparent" stroke-width="2" points="502,-298 350,-298 350,-262 502,-262 502,-298"/>
<text text-anchor="start" x="360.6642" y="-276.2" font-family="Helvetica,sans-Serif" font-size="12.00" fill="#000000">FIFO_READ_SLVADDR</text>
<path fill="none" stroke="#000000" stroke-width="2" d="M362.3333,-263C362.3333,-263 489.6667,-263 489.6667,-263 495.3333,-263 501,-268.6667 501,-274.3333 501,-274.3333 501,-285.6667 501,-285.6667 501,-291.3333 495.3333,-297 489.6667,-297 489.6667,-297 362.3333,-297 362.3333,-297 356.6667,-297 351,-291.3333 351,-285.6667 351,-285.6667 351,-274.3333 351,-274.3333 351,-268.6667 356.6667,-263 362.3333,-263"/>
</g>
<!-- FIFO_READ_SLVADDR&#45;&gt;HOLD -->
<g id="edge6" class="edge transition">
<title>FIFO_READ_SLVADDR&#45;&gt;HOLD</title>
<path fill="none" stroke="#000000" d="M395.8172,-261.8015C375.4586,-249.5265 348.4689,-233.2533 326.843,-220.2142"/>
<polygon fill="#000000" stroke="#000000" points="328.6123,-217.194 318.2412,-215.0278 324.9978,-223.1886 328.6123,-217.194"/>
<text text-anchor="middle" x="368.3895" y="-236" font-family="Helvetica,sans-Serif" font-size="10.00" fill="#000000"> </text>
</g>
<!-- FIFO_READ_NUMBYTE -->
<g id="node6" class="node state regular">
<title>FIFO_READ_NUMBYTE</title>
<polygon fill="#ffffff" fill-opacity="0.003922" stroke="transparent" stroke-width="2" points="466,-720 312,-720 312,-684 466,-684 466,-720"/>
<text text-anchor="start" x="322.6682" y="-698.2" font-family="Helvetica,sans-Serif" font-size="12.00" fill="#000000">FIFO_READ_NUMBYTE</text>
<path fill="none" stroke="#000000" stroke-width="2" d="M324.3333,-685C324.3333,-685 453.6667,-685 453.6667,-685 459.3333,-685 465,-690.6667 465,-696.3333 465,-696.3333 465,-707.6667 465,-707.6667 465,-713.3333 459.3333,-719 453.6667,-719 453.6667,-719 324.3333,-719 324.3333,-719 318.6667,-719 313,-713.3333 313,-707.6667 313,-707.6667 313,-696.3333 313,-696.3333 313,-690.6667 318.6667,-685 324.3333,-685"/>
</g>
<!-- FIFO_READ_NUMBYTE&#45;&gt;HOLD -->
<g id="edge7" class="edge transition">
<title>FIFO_READ_NUMBYTE&#45;&gt;HOLD</title>
<path fill="none" stroke="#000000" d="M459.2514,-683.7743C466.3442,-678.119 471,-670.709 471,-661 471,-661 471,-661 471,-482.5 471,-397.7785 442.9573,-371.6931 380,-315 365.341,-301.7996 353.3782,-311.5057 339,-298 327.7543,-287.4367 311.4841,-251.1733 300.8262,-225.3626"/>
<polygon fill="#000000" stroke="#000000" points="304.0504,-224 297.0384,-216.0576 297.567,-226.6393 304.0504,-224"/>
<text text-anchor="start" x="470" y="-453" font-family="Helvetica,sans-Serif" font-size="10.00" fill="#000000">!r_rw &#160;&#160;</text>
</g>
<!-- RD_FIFO_WR_SLVADDR -->
<g id="node10" class="node state regular">
<title>RD_FIFO_WR_SLVADDR</title>
<polygon fill="#ffffff" fill-opacity="0.003922" stroke="transparent" stroke-width="2" points="447.5,-638 284.5,-638 284.5,-602 447.5,-602 447.5,-638"/>
<text text-anchor="start" x="295.8368" y="-616.2" font-family="Helvetica,sans-Serif" font-size="12.00" fill="#000000">RD_FIFO_WR_SLVADDR</text>
<path fill="none" stroke="#000000" stroke-width="2" d="M296.8333,-603C296.8333,-603 435.1667,-603 435.1667,-603 440.8333,-603 446.5,-608.6667 446.5,-614.3333 446.5,-614.3333 446.5,-625.6667 446.5,-625.6667 446.5,-631.3333 440.8333,-637 435.1667,-637 435.1667,-637 296.8333,-637 296.8333,-637 291.1667,-637 285.5,-631.3333 285.5,-625.6667 285.5,-625.6667 285.5,-614.3333 285.5,-614.3333 285.5,-608.6667 291.1667,-603 296.8333,-603"/>
</g>
<!-- FIFO_READ_NUMBYTE&#45;&gt;RD_FIFO_WR_SLVADDR -->
<g id="edge8" class="edge transition">
<title>FIFO_READ_NUMBYTE&#45;&gt;RD_FIFO_WR_SLVADDR</title>
<path fill="none" stroke="#000000" d="M383.8956,-683.8015C380.9476,-673.2915 377.1775,-659.8503 373.8586,-648.0177"/>
<polygon fill="#000000" stroke="#000000" points="377.1609,-646.8308 371.0902,-638.1476 370.421,-648.7213 377.1609,-646.8308"/>
<text text-anchor="start" x="379" y="-658" font-family="Helvetica,sans-Serif" font-size="10.00" fill="#000000">not (!r_rw) &#160;&#160;</text>
</g>
<!-- WR_FIFO_DATA -->
<g id="node7" class="node state regular">
<title>WR_FIFO_DATA</title>
<polygon fill="#ffffff" fill-opacity="0.003922" stroke="transparent" stroke-width="2" points="160,-556 46,-556 46,-520 160,-520 160,-556"/>
<text text-anchor="start" x="56.6692" y="-534.2" font-family="Helvetica,sans-Serif" font-size="12.00" fill="#000000">WR_FIFO_DATA</text>
<path fill="none" stroke="#000000" stroke-width="2" d="M58.3333,-521C58.3333,-521 147.6667,-521 147.6667,-521 153.3333,-521 159,-526.6667 159,-532.3333 159,-532.3333 159,-543.6667 159,-543.6667 159,-549.3333 153.3333,-555 147.6667,-555 147.6667,-555 58.3333,-555 58.3333,-555 52.6667,-555 47,-549.3333 47,-543.6667 47,-543.6667 47,-532.3333 47,-532.3333 47,-526.6667 52.6667,-521 58.3333,-521"/>
</g>
<!-- WRITE -->
<g id="node8" class="node state regular">
<title>WRITE</title>
<polygon fill="#ffffff" fill-opacity="0.003922" stroke="transparent" stroke-width="2" points="133,-474 73,-474 73,-438 133,-438 133,-474"/>
<text text-anchor="start" x="83.671" y="-452.2" font-family="Helvetica,sans-Serif" font-size="12.00" fill="#000000">WRITE</text>
<path fill="none" stroke="#000000" stroke-width="2" d="M85.3333,-439C85.3333,-439 120.6667,-439 120.6667,-439 126.3333,-439 132,-444.6667 132,-450.3333 132,-450.3333 132,-461.6667 132,-461.6667 132,-467.3333 126.3333,-473 120.6667,-473 120.6667,-473 85.3333,-473 85.3333,-473 79.6667,-473 74,-467.3333 74,-461.6667 74,-461.6667 74,-450.3333 74,-450.3333 74,-444.6667 79.6667,-439 85.3333,-439"/>
</g>
<!-- WR_FIFO_DATA&#45;&gt;WRITE -->
<g id="edge9" class="edge transition">
<title>WR_FIFO_DATA&#45;&gt;WRITE</title>
<path fill="none" stroke="#000000" d="M103,-519.8015C103,-509.3976 103,-496.1215 103,-484.3768"/>
<polygon fill="#000000" stroke="#000000" points="106.5001,-484.1476 103,-474.1476 99.5001,-484.1476 106.5001,-484.1476"/>
<text text-anchor="middle" x="104.3895" y="-494" font-family="Helvetica,sans-Serif" font-size="10.00" fill="#000000"> </text>
</g>
<!-- WR_CONDITION -->
<g id="node9" class="node state regular">
<title>WR_CONDITION</title>
<polygon fill="#ffffff" fill-opacity="0.003922" stroke="transparent" stroke-width="2" points="131.5,-392 16.5,-392 16.5,-356 131.5,-356 131.5,-392"/>
<text text-anchor="start" x="27.5092" y="-370.2" font-family="Helvetica,sans-Serif" font-size="12.00" fill="#000000">WR_CONDITION</text>
<path fill="none" stroke="#000000" stroke-width="2" d="M28.8333,-357C28.8333,-357 119.1667,-357 119.1667,-357 124.8333,-357 130.5,-362.6667 130.5,-368.3333 130.5,-368.3333 130.5,-379.6667 130.5,-379.6667 130.5,-385.3333 124.8333,-391 119.1667,-391 119.1667,-391 28.8333,-391 28.8333,-391 23.1667,-391 17.5,-385.3333 17.5,-379.6667 17.5,-379.6667 17.5,-368.3333 17.5,-368.3333 17.5,-362.6667 23.1667,-357 28.8333,-357"/>
</g>
<!-- WRITE&#45;&gt;WR_CONDITION -->
<g id="edge10" class="edge transition">
<title>WRITE&#45;&gt;WR_CONDITION</title>
<path fill="none" stroke="#000000" d="M72.5863,-440.261C65.6372,-435.1165 59.1544,-428.701 55.251,-421 52.1021,-414.7876 52.7018,-407.9153 55.0302,-401.3877"/>
<polygon fill="#000000" stroke="#000000" points="58.2741,-402.7178 59.4434,-392.1877 51.9626,-399.6902 58.2741,-402.7178"/>
<text text-anchor="start" x="55" y="-412" font-family="Helvetica,sans-Serif" font-size="10.00" fill="#000000">count &gt; 0 &#160;&#160;</text>
</g>
<!-- WRITE&#45;&gt;WR_CONDITION -->
<g id="edge11" class="edge transition">
<title>WRITE&#45;&gt;WR_CONDITION</title>
<path fill="none" stroke="#000000" d="M107.7195,-437.5924C109.1272,-428.6825 109.4918,-417.994 106,-409 104.8081,-405.9299 103.2074,-402.9648 101.3548,-400.1467"/>
<polygon fill="#000000" stroke="#000000" points="104.0808,-397.9504 95.1979,-392.1758 98.541,-402.2294 104.0808,-397.9504"/>
<text text-anchor="start" x="108" y="-412" font-family="Helvetica,sans-Serif" font-size="10.00" fill="#000000">not (count &gt; 0) &#160;&#160;</text>
</g>
<!-- WR_CONDITION&#45;&gt;IDLE -->
<g id="edge13" class="edge transition">
<title>WR_CONDITION&#45;&gt;IDLE</title>
<path fill="none" stroke="#000000" d="M79.7062,-355.9766C84.571,-343.1176 92.7014,-326.1883 104.685,-315 108.244,-311.6772 128.3361,-302.922 147.5318,-295.0001"/>
<polygon fill="#000000" stroke="#000000" points="148.8767,-298.2316 156.8068,-291.2056 146.2261,-291.7528 148.8767,-298.2316"/>
<text text-anchor="start" x="104" y="-330" font-family="Helvetica,sans-Serif" font-size="10.00" fill="#000000">not (count &lt; r_num_byte) &#160;&#160;</text>
<text text-anchor="start" x="104" y="-318" font-family="Helvetica,sans-Serif" font-size="10.00" fill="#000000">en_ack &#160;&#160;</text>
</g>
<!-- WR_CONDITION&#45;&gt;HOLD -->
<g id="edge12" class="edge transition">
<title>WR_CONDITION&#45;&gt;HOLD</title>
<path fill="none" stroke="#000000" d="M51.4051,-355.7226C44.1721,-347.8256 38,-337.895 38,-327 38,-327 38,-327 38,-239 38,-217.656 180.6555,-205.2203 251.3009,-200.3705"/>
<polygon fill="#000000" stroke="#000000" points="251.8379,-203.8425 261.5823,-199.6834 251.3711,-196.8581 251.8379,-203.8425"/>
<text text-anchor="start" x="38" y="-283" font-family="Helvetica,sans-Serif" font-size="10.00" fill="#000000">count &lt; r_num_byte &#160;&#160;</text>
<text text-anchor="start" x="38" y="-271" font-family="Helvetica,sans-Serif" font-size="10.00" fill="#000000">en_ack &#160;&#160;</text>
</g>
<!-- WR_CONDITION&#45;&gt;WR_CONDITION -->
<g id="edge14" class="edge transition">
<title>WR_CONDITION&#45;&gt;WR_CONDITION</title>
<path fill="none" stroke="#000000" d="M131.528,-378.7438C144.241,-378.2981 153.5,-376.7168 153.5,-374 153.5,-372.0898 148.9225,-370.7409 141.7854,-369.9534"/>
<polygon fill="#000000" stroke="#000000" points="141.7424,-366.4425 131.528,-369.2562 141.2676,-373.4264 141.7424,-366.4425"/>
<text text-anchor="start" x="153.5" y="-371" font-family="Helvetica,sans-Serif" font-size="10.00" fill="#000000">not (en_ack) &#160;&#160;</text>
</g>
<!-- RD_FIFO_WR_NUMBYTE -->
<g id="node11" class="node state regular">
<title>RD_FIFO_WR_NUMBYTE</title>
<polygon fill="#ffffff" fill-opacity="0.003922" stroke="transparent" stroke-width="2" points="412.5,-556 247.5,-556 247.5,-520 412.5,-520 412.5,-556"/>
<text text-anchor="start" x="258.8408" y="-534.2" font-family="Helvetica,sans-Serif" font-size="12.00" fill="#000000">RD_FIFO_WR_NUMBYTE</text>
<path fill="none" stroke="#000000" stroke-width="2" d="M259.8333,-521C259.8333,-521 400.1667,-521 400.1667,-521 405.8333,-521 411.5,-526.6667 411.5,-532.3333 411.5,-532.3333 411.5,-543.6667 411.5,-543.6667 411.5,-549.3333 405.8333,-555 400.1667,-555 400.1667,-555 259.8333,-555 259.8333,-555 254.1667,-555 248.5,-549.3333 248.5,-543.6667 248.5,-543.6667 248.5,-532.3333 248.5,-532.3333 248.5,-526.6667 254.1667,-521 259.8333,-521"/>
</g>
<!-- RD_FIFO_WR_SLVADDR&#45;&gt;RD_FIFO_WR_NUMBYTE -->
<g id="edge15" class="edge transition">
<title>RD_FIFO_WR_SLVADDR&#45;&gt;RD_FIFO_WR_NUMBYTE</title>
<path fill="none" stroke="#000000" d="M358.0104,-601.8015C353.3496,-591.1853 347.3759,-577.5784 342.1433,-565.6596"/>
<polygon fill="#000000" stroke="#000000" points="345.1919,-563.897 337.9672,-556.1476 338.7824,-566.711 345.1919,-563.897"/>
<text text-anchor="middle" x="351.3895" y="-576" font-family="Helvetica,sans-Serif" font-size="10.00" fill="#000000"> </text>
</g>
<!-- RD_ENABLE -->
<g id="node12" class="node state regular">
<title>RD_ENABLE</title>
<polygon fill="#ffffff" fill-opacity="0.003922" stroke="transparent" stroke-width="2" points="312.5,-474 219.5,-474 219.5,-438 312.5,-438 312.5,-474"/>
<text text-anchor="start" x="230.8294" y="-452.2" font-family="Helvetica,sans-Serif" font-size="12.00" fill="#000000">RD_ENABLE</text>
<path fill="none" stroke="#000000" stroke-width="2" d="M231.8333,-439C231.8333,-439 300.1667,-439 300.1667,-439 305.8333,-439 311.5,-444.6667 311.5,-450.3333 311.5,-450.3333 311.5,-461.6667 311.5,-461.6667 311.5,-467.3333 305.8333,-473 300.1667,-473 300.1667,-473 231.8333,-473 231.8333,-473 226.1667,-473 220.5,-467.3333 220.5,-461.6667 220.5,-461.6667 220.5,-450.3333 220.5,-450.3333 220.5,-444.6667 226.1667,-439 231.8333,-439"/>
</g>
<!-- RD_FIFO_WR_NUMBYTE&#45;&gt;RD_ENABLE -->
<g id="edge16" class="edge transition">
<title>RD_FIFO_WR_NUMBYTE&#45;&gt;RD_ENABLE</title>
<path fill="none" stroke="#000000" d="M315.7963,-519.8015C307.179,-508.7606 296.0372,-494.4851 286.4783,-482.2378"/>
<polygon fill="#000000" stroke="#000000" points="289.0758,-479.8773 280.164,-474.1476 283.5576,-484.1842 289.0758,-479.8773"/>
<text text-anchor="middle" x="303.3895" y="-494" font-family="Helvetica,sans-Serif" font-size="10.00" fill="#000000"> </text>
</g>
<!-- RD_ENABLE&#45;&gt;RD_ENABLE -->
<g id="edge18" class="edge transition">
<title>RD_ENABLE&#45;&gt;RD_ENABLE</title>
<path fill="none" stroke="#000000" d="M312.7439,-460.8322C325.1236,-460.556 334.5,-458.9453 334.5,-456 334.5,-453.9291 329.8645,-452.518 322.8087,-451.7666"/>
<polygon fill="#000000" stroke="#000000" points="322.9341,-448.268 312.7439,-451.1678 322.5183,-455.2556 322.9341,-448.268"/>
<text text-anchor="start" x="334.5" y="-453" font-family="Helvetica,sans-Serif" font-size="10.00" fill="#000000">not (data_valid_out) &#160;&#160;</text>
</g>
<!-- RD_CONDITION -->
<g id="node13" class="node state regular">
<title>RD_CONDITION</title>
<polygon fill="#ffffff" fill-opacity="0.003922" stroke="transparent" stroke-width="2" points="347.5,-392 234.5,-392 234.5,-356 347.5,-356 347.5,-392"/>
<text text-anchor="start" x="245.8412" y="-370.2" font-family="Helvetica,sans-Serif" font-size="12.00" fill="#000000">RD_CONDITION</text>
<path fill="none" stroke="#000000" stroke-width="2" d="M246.8333,-357C246.8333,-357 335.1667,-357 335.1667,-357 340.8333,-357 346.5,-362.6667 346.5,-368.3333 346.5,-368.3333 346.5,-379.6667 346.5,-379.6667 346.5,-385.3333 340.8333,-391 335.1667,-391 335.1667,-391 246.8333,-391 246.8333,-391 241.1667,-391 235.5,-385.3333 235.5,-379.6667 235.5,-379.6667 235.5,-368.3333 235.5,-368.3333 235.5,-362.6667 241.1667,-357 246.8333,-357"/>
</g>
<!-- RD_ENABLE&#45;&gt;RD_CONDITION -->
<g id="edge17" class="edge transition">
<title>RD_ENABLE&#45;&gt;RD_CONDITION</title>
<path fill="none" stroke="#000000" d="M312.7765,-447.4669C327.5049,-442.3361 342.2086,-434.1275 351,-421 356.6878,-412.5068 353.4795,-404.8597 346.226,-398.3214"/>
<polygon fill="#000000" stroke="#000000" points="347.9419,-395.2402 337.8039,-392.1624 343.8098,-400.8905 347.9419,-395.2402"/>
<text text-anchor="start" x="353" y="-412" font-family="Helvetica,sans-Serif" font-size="10.00" fill="#000000">data_valid_out &#160;&#160;</text>
</g>
<!-- RD_CONDITION&#45;&gt;IDLE -->
<g id="edge20" class="edge transition">
<title>RD_CONDITION&#45;&gt;IDLE</title>
<path fill="none" stroke="#000000" d="M273.3301,-355.9205C261.4017,-343.9656 245.1316,-328.1352 230,-315 225.992,-311.5208 221.6886,-307.9634 217.3894,-304.5133"/>
<polygon fill="#000000" stroke="#000000" points="219.2252,-301.5037 209.2058,-298.0595 214.8905,-307.0001 219.2252,-301.5037"/>
<text text-anchor="start" x="255" y="-324" font-family="Helvetica,sans-Serif" font-size="10.00" fill="#000000">not (count &lt; r_num_byte) &#160;&#160;</text>
</g>
<!-- RD_CONDITION&#45;&gt;RD_ENABLE -->
<g id="edge19" class="edge transition">
<title>RD_CONDITION&#45;&gt;RD_ENABLE</title>
<path fill="none" stroke="#000000" d="M262.0295,-392.2746C256.7607,-397.0334 251.9967,-402.6407 249.019,-409 246.1022,-415.2293 246.6206,-422.1081 248.7263,-428.6365"/>
<polygon fill="#000000" stroke="#000000" points="245.5302,-430.0635 252.7319,-437.8343 251.9481,-427.2685 245.5302,-430.0635"/>
<text text-anchor="start" x="249" y="-412" font-family="Helvetica,sans-Serif" font-size="10.00" fill="#000000">count &lt; r_num_byte &#160;&#160;</text>
</g>
</g>
</svg>
